<?xml version="1.0" encoding="UTF-8"?>
<svg width="100px" height="100px" viewBox="0 0 100 100" version="1.1" xmlns="http://www.w3.org/2000/svg" xmlns:xlink="http://www.w3.org/1999/xlink">
    <!-- Generator: Sketch 49.3 (51167) - http://www.bohemiancoding.com/sketch -->
    <title>DR_Logo_2018_Official copy-04</title>
    <desc>Created with Sketch.</desc>
    <defs>
        <linearGradient x1="-0.0179353493%" y1="49.8689891%" x2="100.194891%" y2="49.8689891%" id="linearGradient-1">
            <stop stop-color="#F26722" offset="0%"></stop>
            <stop stop-color="#FBB040" offset="100%"></stop>
        </linearGradient>
    </defs>
    <g id="Page-1" stroke="none" stroke-width="1" fill="none" fill-rule="evenodd">
        <g id="DR_Logo_2018_Official-copy-04" fill-rule="nonzero">
            <path d="M96.2,31.7 C96.2,14.5 82.2,0.6 65.1,0.6 L26.3,0.6 C25.8,0.6 25.4,0.6 24.9,0.6 L0.3,0.6 L0.3,57.6 L1.2,57.6 L17,57.6 L25.5,57.6 C35.5,57.6 44.7,48.8 44.7,37.7 C44.7,26.6 35.5,17.2 25.5,17.2 L17,17.2 L17,50.9 L8.1,50.9 L8,8.3 L25,8.3 C28.9,8.3 32.7,9.1 36.3,10.6 C39.9,12.1 42.9,14.2 45.5,16.8 C48.1,19.3 50.3,22.5 51.8,25.9 C53.3,29.5 54,33.3 54,37.2 C54,41.1 53.3,45.2 51.8,48.8 C50.3,52.3 48.1,55.5 45.5,58 C43,60.6 39.9,62.7 36.3,64.2 C32.8,65.7 29,66.5 25,66.5 L0.4,66.5 L0.4,73.8 L24.9,73.8 C36.7,73.8 47.2,68.2 53.9,59.5 L63,73.7 L71.9,73.7 L58.2,52.3 C59.8,48.7 60.9,44.9 61.3,40.8 L82.6,73.5 L91.5,73.5 L81.5,58.1 C90.5,52.6 96.2,42.5 96.2,31.7 Z M26.3,24.8 C32.1,24.8 36.9,30.7 36.9,37.9 C36.9,45.1 30.6,50.9 24.8,50.9 L24.7,24.8 L26.3,24.8 Z M65.1,8.1 C68.1,8.1 71.3,8.7 74.2,9.9 C77,11.1 79.4,12.8 81.7,14.9 C83.7,16.9 85.4,19.4 86.7,22.4 C87.9,25.3 88.5,28.3 88.5,31.5 C88.5,34.8 87.9,37.8 86.7,40.7 C85.3,43.8 83.7,46.2 81.6,48.2 C80.2,49.6 78.7,50.7 77.2,51.7 L72.7,44.7 C76.8,41.8 80.2,37.1 80.2,31.9 C80.2,23.2 72.3,16.1 62.6,16.1 L54.9,16.1 C52.8,13.1 50.2,10.3 47.2,8.1 L65.1,8.1 Z M69,38.9 L58.7,23.1 L62,23.2 C63.4,23.2 64.9,23.4 66.2,23.8 C67.5,24.3 68.6,24.7 69.6,25.6 C70.5,26.4 71.2,27.4 71.8,28.5 C72.3,29.6 72.6,30.7 72.6,31.9 C72.6,33.2 72.3,34.3 71.9,35.3 C71.3,36.5 70.6,37.4 69.7,38.2 C69.6,38.5 69.3,38.7 69,38.9 Z" id="Shape" fill="url(#linearGradient-1)"></path>
        </g>
    </g>
</svg>